%
M48
M72
T01C0.0197
T02C0.0320
T03C0.0360
T04C0.0400
%
T01
X4510Y3630
X5060Y7680
X4310Y8280
X7260Y7680
X8460Y8880
X7660Y9930
X8360Y11280
X9710Y10180
X10410Y9680
X11360Y10430
X10410Y10730
X10760Y11330
X9960Y12530
X11310Y13430
X11560Y14280
X12510Y14330
X11760Y16180
X12110Y17680
X11210Y18180
X10010Y18130
X9210Y17830
X8360Y18330
X6010Y17380
X5110Y16930
X5960Y15980
X5910Y15230
X6060Y14380
X4310Y15080
X4260Y11380
X9960Y8730
X9960Y8030
X10910Y8730
X11860Y8780
X12560Y7230
X12460Y6130
X12510Y4480
X14860Y6530
X15860Y7480
X17160Y8480
X15660Y9730
X16160Y10630
X15060Y10630
X14560Y10330
X14510Y11230
X13460Y10680
X13810Y12380
X15960Y12830
X16610Y12530
X16110Y12180
X17310Y13730
X16210Y14330
X16910Y15530
X17060Y16130
X17760Y16330
X18160Y16330
X17960Y16880
X18160Y17430
X17760Y17430
X17510Y18030
X17010Y18280
X17010Y17580
X17110Y16930
X18160Y18080
X17810Y18530
X18010Y19080
X18510Y18630
X19160Y18480
X19560Y17780
X18910Y17430
X19360Y16880
X18910Y16080
X18460Y15480
X18910Y14630
X19710Y15880
X20610Y14830
X21360Y16880
X18760Y19280
X17110Y19080
X15260Y19430
X14760Y19180
X14110Y19180
X13610Y18680
X14160Y17380
X15260Y18680
X14010Y20730
X15160Y21230
X15960Y21230
X13060Y22080
X11760Y20530
X8609Y22114
X5810Y18780
X4760Y22330
X15560Y15680
X18510Y12880
X17960Y10680
X19510Y9080
X18610Y8330
X18910Y7030
X17510Y6280
X14510Y8380
X21660Y22330
T02
X20360Y13080
X20360Y11180
X18310Y4930
X17310Y4930
X16310Y4930
X15310Y4930
X14310Y4930
X13310Y4930
X8710Y12880
X7710Y12880
X6710Y12880
T03
X12610Y16280
X13810Y16280
X7410Y20930
X6160Y20930
X20460Y6230
X20460Y5280
X21410Y17830
X21410Y19080
T04
X6360Y10730
X6360Y9730
X6360Y8730
X6360Y6830
X6360Y5830
X6360Y4830
M30
