G75*
%MOIN*%
%OFA0B0*%
%FSLAX24Y24*%
%IPPOS*%
%LPD*%
%AMOC8*
5,1,8,0,0,1.08239X$1,22.5*
%
%ADD10C,0.0000*%
%ADD11C,0.0051*%
%ADD12C,0.0060*%
D10*
X003647Y002711D02*
X003647Y023184D01*
X022151Y023184D01*
X022151Y002711D01*
X003647Y002711D01*
D11*
X000492Y002711D01*
X001260Y002737D02*
X001362Y003735D01*
X001385Y003735D02*
X001260Y002737D01*
X001157Y003735D01*
X001134Y003735D02*
X001385Y003735D01*
X001311Y003735D02*
X001260Y002737D01*
X001208Y003735D01*
X001134Y003735D02*
X001260Y002737D01*
X001260Y023158D01*
X001362Y022160D01*
X001385Y022160D02*
X001260Y023158D01*
X001157Y022160D01*
X001134Y022160D02*
X001385Y022160D01*
X001311Y022160D02*
X001260Y023158D01*
X001208Y022160D01*
X001134Y022160D02*
X001260Y023158D01*
X000492Y023184D02*
X003647Y023184D01*
X003647Y025548D01*
X003673Y024780D02*
X004671Y024678D01*
X004671Y024654D02*
X003673Y024780D01*
X004671Y024882D01*
X004671Y024906D02*
X004671Y024654D01*
X004671Y024729D02*
X003673Y024780D01*
X004671Y024831D01*
X004671Y024906D02*
X003673Y024780D01*
X022125Y024780D01*
X021127Y024678D01*
X021127Y024654D02*
X022125Y024780D01*
X021127Y024882D01*
X021127Y024906D02*
X021127Y024654D01*
X021127Y024729D02*
X022125Y024780D01*
X021127Y024831D01*
X021127Y024906D02*
X022125Y024780D01*
X022151Y025548D02*
X022151Y023184D01*
D12*
X014359Y025143D02*
X014252Y025036D01*
X014039Y025036D01*
X013932Y025143D01*
X014359Y025570D01*
X014359Y025143D01*
X014359Y025570D02*
X014252Y025677D01*
X014039Y025677D01*
X013932Y025570D01*
X013932Y025143D01*
X013715Y025143D02*
X013608Y025036D01*
X013394Y025036D01*
X013287Y025143D01*
X013715Y025570D01*
X013715Y025143D01*
X013287Y025143D02*
X013287Y025570D01*
X013394Y025677D01*
X013608Y025677D01*
X013715Y025570D01*
X013072Y025143D02*
X013072Y025036D01*
X012965Y025036D01*
X012965Y025143D01*
X013072Y025143D01*
X012748Y025570D02*
X012321Y025143D01*
X012321Y025036D01*
X011996Y025036D02*
X011996Y025677D01*
X011676Y025356D01*
X012103Y025356D01*
X012321Y025677D02*
X012748Y025677D01*
X012748Y025570D01*
X001003Y014301D02*
X001003Y014087D01*
X000897Y013980D01*
X000470Y014407D01*
X000897Y014407D01*
X001003Y014301D01*
X000897Y013980D02*
X000470Y013980D01*
X000363Y014087D01*
X000363Y014301D01*
X000470Y014407D01*
X000470Y013763D02*
X000897Y013336D01*
X001003Y013443D01*
X001003Y013656D01*
X000897Y013763D01*
X000470Y013763D01*
X000363Y013656D01*
X000363Y013443D01*
X000470Y013336D01*
X000897Y013336D01*
X000897Y013120D02*
X001003Y013120D01*
X001003Y013014D01*
X000897Y013014D01*
X000897Y013120D01*
X001003Y012796D02*
X001003Y012369D01*
X000576Y012796D01*
X000470Y012796D01*
X000363Y012689D01*
X000363Y012476D01*
X000470Y012369D01*
X000363Y012152D02*
X000363Y011725D01*
X000683Y011725D01*
X000576Y011938D01*
X000576Y012045D01*
X000683Y012152D01*
X000897Y012152D01*
X001003Y012045D01*
X001003Y011831D01*
X000897Y011725D01*
M02*
