G75*
%MOIN*%
%OFA0B0*%
%FSLAX24Y24*%
%IPPOS*%
%LPD*%
%AMOC8*
5,1,8,0,0,1.08239X$1,22.5*
%
%ADD10R,0.0630X0.0512*%
%ADD11R,0.0413X0.0425*%
%ADD12R,0.0425X0.0413*%
%ADD13R,0.0945X0.0630*%
%ADD14R,0.0512X0.0630*%
%ADD15R,0.0591X0.0197*%
%ADD16R,0.0197X0.0591*%
%ADD17R,0.0472X0.0472*%
%ADD18R,0.0591X0.0512*%
%ADD19R,0.0512X0.0591*%
%ADD20R,0.0260X0.0800*%
%ADD21R,0.0787X0.0591*%
%ADD22R,0.0787X0.1496*%
%ADD23R,0.0157X0.0472*%
%ADD24R,0.0787X0.0787*%
%ADD25R,0.1772X0.0787*%
D10*
X005110Y007686D03*
X005110Y008474D03*
X009210Y014506D03*
X009210Y015254D03*
X009210Y016206D03*
X009210Y016954D03*
X010310Y015254D03*
X010310Y014506D03*
X011660Y011774D03*
X011660Y010986D03*
X015010Y007924D03*
X015010Y007136D03*
X018710Y009736D03*
X018710Y010524D03*
X020360Y009374D03*
X020360Y008586D03*
X017610Y014686D03*
X017610Y015474D03*
X014710Y015424D03*
X014710Y014636D03*
X005110Y016086D03*
X005110Y016874D03*
D11*
X008515Y021130D03*
X009204Y021130D03*
X013715Y021430D03*
X014404Y021430D03*
X011004Y016180D03*
X010315Y016180D03*
D12*
X010710Y017236D03*
X010710Y017924D03*
X010710Y021086D03*
X010710Y021774D03*
X013060Y021436D03*
X013060Y022124D03*
X015310Y017124D03*
X015310Y016436D03*
D13*
X017910Y021089D03*
X017910Y022271D03*
X020260Y021571D03*
X020260Y020389D03*
D14*
X020503Y019330D03*
X019716Y019330D03*
X018903Y013730D03*
X018116Y013730D03*
X008553Y022080D03*
X007766Y022080D03*
X007184Y018080D03*
X006435Y018080D03*
D15*
X012726Y012855D03*
X012726Y012540D03*
X012726Y012225D03*
X012726Y011910D03*
X012726Y011595D03*
X012726Y011280D03*
X012726Y010965D03*
X012726Y010650D03*
X012726Y010335D03*
X012726Y010020D03*
X012726Y009705D03*
X017293Y009705D03*
X017293Y010020D03*
X017293Y010335D03*
X017293Y010650D03*
X017293Y010965D03*
X017293Y011280D03*
X017293Y011595D03*
X017293Y011910D03*
X017293Y012225D03*
X017293Y012540D03*
X017293Y012855D03*
D16*
X016584Y013563D03*
X016269Y013563D03*
X015954Y013563D03*
X015639Y013563D03*
X015324Y013563D03*
X015010Y013563D03*
X014695Y013563D03*
X014380Y013563D03*
X014065Y013563D03*
X013750Y013563D03*
X013435Y013563D03*
X013435Y008997D03*
X013750Y008997D03*
X014065Y008997D03*
X014380Y008997D03*
X014695Y008997D03*
X015010Y008997D03*
X015324Y008997D03*
X015639Y008997D03*
X015954Y008997D03*
X016269Y008997D03*
X016584Y008997D03*
D17*
X011860Y005593D03*
X011860Y004767D03*
X010910Y004767D03*
X010910Y005593D03*
X009960Y005593D03*
X009960Y004767D03*
X009010Y004767D03*
X009010Y005593D03*
X008060Y005593D03*
X008060Y004767D03*
D18*
X008060Y007306D03*
X008060Y008054D03*
X009010Y008054D03*
X009010Y007306D03*
X009960Y007306D03*
X009960Y008054D03*
X010910Y008054D03*
X010910Y007306D03*
X011860Y007306D03*
X011860Y008054D03*
X011510Y014306D03*
X011510Y015054D03*
X012510Y015054D03*
X012510Y014306D03*
D19*
X013135Y006430D03*
X013884Y006430D03*
D20*
X008210Y014520D03*
X007710Y014520D03*
X007210Y014520D03*
X006710Y014520D03*
X006710Y016940D03*
X007210Y016940D03*
X007710Y016940D03*
X008210Y016940D03*
D21*
X020450Y016880D03*
X020450Y015974D03*
X020450Y017786D03*
D22*
X017969Y016880D03*
D23*
X015367Y017902D03*
X015111Y017902D03*
X014855Y017902D03*
X014599Y017902D03*
X014343Y017902D03*
X014087Y017902D03*
X013832Y017902D03*
X013576Y017902D03*
X013320Y017902D03*
X013064Y017902D03*
X012808Y017902D03*
X012552Y017902D03*
X012552Y020146D03*
X012808Y020146D03*
X013064Y020146D03*
X013320Y020146D03*
X013576Y020146D03*
X013832Y020146D03*
X014087Y020146D03*
X014343Y020146D03*
X014599Y020146D03*
X014855Y020146D03*
X015111Y020146D03*
X015367Y020146D03*
D24*
X010710Y020148D03*
X010710Y018912D03*
D25*
X007048Y019530D03*
M02*
