G75*
%MOIN*%
%OFA0B0*%
%FSLAX24Y24*%
%IPPOS*%
%LPD*%
%AMOC8*
5,1,8,0,0,1.08239X$1,22.5*
%
%ADD10OC8,0.0630*%
%ADD11C,0.0520*%
%ADD12C,0.0520*%
%ADD13C,0.0600*%
%ADD14C,0.0160*%
%ADD15C,0.0317*%
%ADD16C,0.0560*%
%ADD17C,0.0120*%
%ADD18C,0.0500*%
%ADD19C,0.0320*%
%ADD20C,0.0400*%
%ADD21C,0.0100*%
D10*
X012610Y016280D03*
X013810Y016280D03*
X007410Y020930D03*
X006160Y020930D03*
X020460Y006230D03*
X020460Y005280D03*
X021410Y017830D03*
X021410Y019080D03*
D11*
X008710Y013140D02*
X008710Y012620D01*
X007710Y012620D02*
X007710Y013140D01*
X006710Y013140D02*
X006710Y012620D01*
X013310Y005190D02*
X013310Y004670D01*
X014310Y004670D02*
X014310Y005190D01*
X015310Y005190D02*
X015310Y004670D01*
X016310Y004670D02*
X016310Y005190D01*
X017310Y005190D02*
X017310Y004670D01*
X018310Y004670D02*
X018310Y005190D01*
D12*
X020360Y011180D03*
X020360Y013080D03*
D13*
X006660Y010730D02*
X006060Y010730D01*
X006060Y009730D02*
X006660Y009730D01*
X006660Y008730D02*
X006060Y008730D01*
X006060Y006830D02*
X006660Y006830D01*
X006660Y005830D02*
X006060Y005830D01*
X006060Y004830D02*
X006660Y004830D01*
D14*
X003847Y002911D02*
X003847Y022984D01*
X021951Y022984D01*
X021951Y002911D01*
X003847Y002911D01*
X003847Y002957D02*
X021951Y002957D01*
X021951Y003115D02*
X003847Y003115D01*
X003847Y003274D02*
X005350Y003274D01*
X005366Y003270D02*
X005414Y003250D01*
X005458Y003250D01*
X005501Y003241D01*
X005553Y003250D01*
X014216Y003250D01*
X014218Y003249D01*
X014311Y003250D01*
X014405Y003250D01*
X014407Y003251D01*
X020423Y003299D01*
X020429Y003297D01*
X020519Y003300D01*
X020609Y003301D01*
X020614Y003303D01*
X020619Y003303D01*
X020702Y003340D01*
X020785Y003375D01*
X020789Y003379D01*
X020794Y003381D01*
X020855Y003447D01*
X020919Y003511D01*
X020921Y003517D01*
X021653Y004295D01*
X021715Y004356D01*
X021719Y004364D01*
X021724Y004371D01*
X021755Y004452D01*
X021789Y004533D01*
X021789Y004541D01*
X021792Y004549D01*
X021790Y004636D01*
X021840Y016974D01*
X021768Y017150D01*
X021633Y017286D01*
X021563Y017315D01*
X021623Y017315D01*
X021925Y017617D01*
X021925Y018043D01*
X021623Y018345D01*
X021196Y018345D01*
X020895Y018043D01*
X020895Y017617D01*
X021184Y017327D01*
X021089Y017288D01*
X021081Y017280D01*
X020840Y017280D01*
X020840Y018786D01*
X020797Y018889D01*
X020718Y018967D01*
X020615Y019010D01*
X019390Y019010D01*
X019390Y022072D01*
X019394Y022082D01*
X019396Y022101D01*
X019402Y022119D01*
X019400Y022152D01*
X019407Y022185D01*
X019403Y022204D01*
X019404Y022222D01*
X019394Y022254D01*
X019392Y022288D01*
X019383Y022305D01*
X019380Y022323D01*
X019361Y022351D01*
X019351Y022383D01*
X019338Y022397D01*
X019330Y022414D01*
X019305Y022436D01*
X019287Y022464D01*
X019271Y022475D01*
X019259Y022489D01*
X019234Y022502D01*
X019218Y022517D01*
X019193Y022528D01*
X019170Y022543D01*
X019142Y022549D01*
X019115Y022560D01*
X019088Y022560D01*
X019061Y022565D01*
X019033Y022560D01*
X013061Y022560D01*
X008707Y022593D01*
X008705Y022594D01*
X008611Y022594D01*
X008517Y022595D01*
X008516Y022594D01*
X008005Y022595D01*
X008005Y022596D01*
X007910Y022596D01*
X007815Y022596D01*
X007814Y022596D01*
X007220Y022596D01*
X007208Y022600D01*
X005907Y022609D01*
X005905Y022610D01*
X005811Y022610D01*
X005717Y022611D01*
X003847Y022611D01*
X003847Y022769D02*
X021951Y022769D01*
X021951Y022611D02*
X005734Y022611D01*
X005717Y022611D02*
X005716Y022610D01*
X005714Y022610D01*
X005627Y022574D01*
X005540Y022539D01*
X005539Y022538D01*
X005538Y022537D01*
X005471Y022471D01*
X005404Y022405D01*
X005404Y022403D01*
X004788Y021787D01*
X004653Y021652D01*
X004580Y021475D01*
X004580Y004482D01*
X004570Y004439D01*
X004580Y004387D01*
X004580Y004335D01*
X004596Y004294D01*
X004604Y004251D01*
X004633Y004207D01*
X004653Y004158D01*
X004684Y004127D01*
X005083Y003507D01*
X005103Y003458D01*
X005134Y003427D01*
X005157Y003390D01*
X005201Y003360D01*
X005238Y003323D01*
X005278Y003306D01*
X005314Y003281D01*
X005366Y003270D01*
X005129Y003432D02*
X003847Y003432D01*
X003847Y003591D02*
X005029Y003591D01*
X004927Y003749D02*
X003847Y003749D01*
X003847Y003908D02*
X004825Y003908D01*
X004723Y004066D02*
X003847Y004066D01*
X003847Y004225D02*
X004621Y004225D01*
X004580Y004383D02*
X003847Y004383D01*
X003847Y004542D02*
X004580Y004542D01*
X004580Y004700D02*
X003847Y004700D01*
X003847Y004859D02*
X004580Y004859D01*
X004580Y005017D02*
X003847Y005017D01*
X003847Y005176D02*
X004580Y005176D01*
X004580Y005334D02*
X003847Y005334D01*
X003847Y005493D02*
X004580Y005493D01*
X004580Y005651D02*
X003847Y005651D01*
X003847Y005810D02*
X004580Y005810D01*
X004580Y005968D02*
X003847Y005968D01*
X003847Y006127D02*
X004580Y006127D01*
X004580Y006285D02*
X003847Y006285D01*
X003847Y006444D02*
X004580Y006444D01*
X004580Y006602D02*
X003847Y006602D01*
X003847Y006761D02*
X004580Y006761D01*
X004580Y006919D02*
X003847Y006919D01*
X003847Y007078D02*
X004580Y007078D01*
X004580Y007236D02*
X003847Y007236D01*
X003847Y007395D02*
X004580Y007395D01*
X004580Y007553D02*
X003847Y007553D01*
X003847Y007712D02*
X004580Y007712D01*
X004580Y007870D02*
X003847Y007870D01*
X003847Y008029D02*
X004580Y008029D01*
X004580Y008187D02*
X003847Y008187D01*
X003847Y008346D02*
X004580Y008346D01*
X004580Y008504D02*
X003847Y008504D01*
X003847Y008663D02*
X004580Y008663D01*
X004580Y008821D02*
X003847Y008821D01*
X003847Y008980D02*
X004580Y008980D01*
X004580Y009138D02*
X003847Y009138D01*
X003847Y009297D02*
X004580Y009297D01*
X004580Y009455D02*
X003847Y009455D01*
X003847Y009614D02*
X004580Y009614D01*
X004580Y009772D02*
X003847Y009772D01*
X003847Y009931D02*
X004580Y009931D01*
X004580Y010089D02*
X003847Y010089D01*
X003847Y010248D02*
X004580Y010248D01*
X004580Y010406D02*
X003847Y010406D01*
X003847Y010565D02*
X004580Y010565D01*
X004580Y010723D02*
X003847Y010723D01*
X003847Y010882D02*
X004580Y010882D01*
X004580Y011040D02*
X003847Y011040D01*
X003847Y011199D02*
X004580Y011199D01*
X004580Y011357D02*
X003847Y011357D01*
X003847Y011516D02*
X004580Y011516D01*
X004580Y011674D02*
X003847Y011674D01*
X003847Y011833D02*
X004580Y011833D01*
X004580Y011991D02*
X003847Y011991D01*
X003847Y012150D02*
X004580Y012150D01*
X004580Y012308D02*
X003847Y012308D01*
X003847Y012467D02*
X004580Y012467D01*
X004580Y012625D02*
X003847Y012625D01*
X003847Y012784D02*
X004580Y012784D01*
X004580Y012942D02*
X003847Y012942D01*
X003847Y013101D02*
X004580Y013101D01*
X004580Y013259D02*
X003847Y013259D01*
X003847Y013418D02*
X004580Y013418D01*
X004580Y013576D02*
X003847Y013576D01*
X003847Y013735D02*
X004580Y013735D01*
X004580Y013893D02*
X003847Y013893D01*
X003847Y014052D02*
X004580Y014052D01*
X004580Y014210D02*
X003847Y014210D01*
X003847Y014369D02*
X004580Y014369D01*
X004580Y014527D02*
X003847Y014527D01*
X003847Y014686D02*
X004580Y014686D01*
X004580Y014844D02*
X003847Y014844D01*
X003847Y015003D02*
X004580Y015003D01*
X004580Y015161D02*
X003847Y015161D01*
X003847Y015320D02*
X004580Y015320D01*
X004580Y015478D02*
X003847Y015478D01*
X003847Y015637D02*
X004580Y015637D01*
X004580Y015795D02*
X003847Y015795D01*
X003847Y015954D02*
X004580Y015954D01*
X004580Y016112D02*
X003847Y016112D01*
X003847Y016271D02*
X004580Y016271D01*
X004580Y016429D02*
X003847Y016429D01*
X003847Y016588D02*
X004580Y016588D01*
X004580Y016746D02*
X003847Y016746D01*
X003847Y016905D02*
X004580Y016905D01*
X004580Y017063D02*
X003847Y017063D01*
X003847Y017222D02*
X004580Y017222D01*
X004580Y017380D02*
X003847Y017380D01*
X003847Y017539D02*
X004580Y017539D01*
X004580Y017697D02*
X003847Y017697D01*
X003847Y017856D02*
X004580Y017856D01*
X004580Y018014D02*
X003847Y018014D01*
X003847Y018173D02*
X004580Y018173D01*
X004580Y018331D02*
X003847Y018331D01*
X003847Y018490D02*
X004580Y018490D01*
X004580Y018648D02*
X003847Y018648D01*
X003847Y018807D02*
X004580Y018807D01*
X004580Y018965D02*
X003847Y018965D01*
X003847Y019124D02*
X004580Y019124D01*
X004580Y019282D02*
X003847Y019282D01*
X003847Y019441D02*
X004580Y019441D01*
X004580Y019599D02*
X003847Y019599D01*
X003847Y019758D02*
X004580Y019758D01*
X004580Y019916D02*
X003847Y019916D01*
X003847Y020075D02*
X004580Y020075D01*
X004580Y020233D02*
X003847Y020233D01*
X003847Y020392D02*
X004580Y020392D01*
X004580Y020550D02*
X003847Y020550D01*
X003847Y020709D02*
X004580Y020709D01*
X004580Y020867D02*
X003847Y020867D01*
X003847Y021026D02*
X004580Y021026D01*
X004580Y021184D02*
X003847Y021184D01*
X003847Y021343D02*
X004580Y021343D01*
X004590Y021501D02*
X003847Y021501D01*
X003847Y021660D02*
X004660Y021660D01*
X004819Y021818D02*
X003847Y021818D01*
X003847Y021977D02*
X004977Y021977D01*
X005136Y022135D02*
X003847Y022135D01*
X003847Y022294D02*
X005294Y022294D01*
X005452Y022452D02*
X003847Y022452D01*
X003847Y022928D02*
X021951Y022928D01*
X021951Y022452D02*
X019295Y022452D01*
X019389Y022294D02*
X021951Y022294D01*
X021951Y022135D02*
X019401Y022135D01*
X019390Y021977D02*
X021951Y021977D01*
X021951Y021818D02*
X019390Y021818D01*
X019390Y021660D02*
X021951Y021660D01*
X021951Y021501D02*
X019390Y021501D01*
X019390Y021343D02*
X021951Y021343D01*
X021951Y021184D02*
X019390Y021184D01*
X019390Y021026D02*
X021951Y021026D01*
X021951Y020867D02*
X019390Y020867D01*
X019390Y020709D02*
X021951Y020709D01*
X021951Y020550D02*
X019390Y020550D01*
X019390Y020392D02*
X021951Y020392D01*
X021951Y020233D02*
X019390Y020233D01*
X019390Y020075D02*
X021951Y020075D01*
X021951Y019916D02*
X019390Y019916D01*
X019390Y019758D02*
X021951Y019758D01*
X021951Y019599D02*
X019390Y019599D01*
X019390Y019441D02*
X021070Y019441D01*
X021204Y019575D02*
X020915Y019285D01*
X020915Y019090D01*
X021400Y019090D01*
X021400Y019575D01*
X021204Y019575D01*
X021420Y019575D02*
X021615Y019575D01*
X021905Y019285D01*
X021905Y019090D01*
X021420Y019090D01*
X021420Y019070D01*
X021905Y019070D01*
X021905Y018875D01*
X021615Y018585D01*
X021420Y018585D01*
X021420Y019070D01*
X021400Y019070D01*
X021400Y018585D01*
X021204Y018585D01*
X020915Y018875D01*
X020915Y019070D01*
X021400Y019070D01*
X021400Y019090D01*
X021420Y019090D01*
X021420Y019575D01*
X021420Y019441D02*
X021400Y019441D01*
X021400Y019282D02*
X021420Y019282D01*
X021420Y019124D02*
X021400Y019124D01*
X021400Y018965D02*
X021420Y018965D01*
X021420Y018807D02*
X021400Y018807D01*
X021400Y018648D02*
X021420Y018648D01*
X021678Y018648D02*
X021951Y018648D01*
X021951Y018490D02*
X020840Y018490D01*
X020840Y018648D02*
X021141Y018648D01*
X020983Y018807D02*
X020831Y018807D01*
X020915Y018965D02*
X020720Y018965D01*
X020915Y019124D02*
X019390Y019124D01*
X019390Y019282D02*
X020915Y019282D01*
X020560Y018730D02*
X020560Y015280D01*
X016710Y015280D01*
X016760Y021330D01*
X016760Y022280D01*
X019060Y022280D01*
X019084Y022264D01*
X019103Y022242D01*
X019116Y022215D01*
X019121Y022187D01*
X019119Y022158D01*
X019110Y022130D01*
X019110Y018730D01*
X020560Y018730D01*
X020560Y018648D02*
X016737Y018648D01*
X016736Y018490D02*
X020560Y018490D01*
X020560Y018331D02*
X016735Y018331D01*
X016733Y018173D02*
X020560Y018173D01*
X020560Y018014D02*
X016732Y018014D01*
X016731Y017856D02*
X020560Y017856D01*
X020560Y017697D02*
X016729Y017697D01*
X016728Y017539D02*
X020560Y017539D01*
X020560Y017380D02*
X016727Y017380D01*
X016726Y017222D02*
X020560Y017222D01*
X020560Y017063D02*
X016724Y017063D01*
X016723Y016905D02*
X020560Y016905D01*
X020560Y016746D02*
X016722Y016746D01*
X016720Y016588D02*
X020560Y016588D01*
X020560Y016429D02*
X016719Y016429D01*
X016718Y016271D02*
X020560Y016271D01*
X020560Y016112D02*
X016716Y016112D01*
X016715Y015954D02*
X020560Y015954D01*
X020560Y015795D02*
X016714Y015795D01*
X016712Y015637D02*
X020560Y015637D01*
X020560Y015478D02*
X016711Y015478D01*
X016710Y015320D02*
X020560Y015320D01*
X020840Y015320D02*
X020873Y015320D01*
X020840Y015224D02*
X020840Y016480D01*
X020878Y016480D01*
X020837Y006552D01*
X020665Y006725D01*
X020470Y006725D01*
X020470Y006240D01*
X020450Y006240D01*
X020450Y006725D01*
X020254Y006725D01*
X019965Y006435D01*
X019965Y006240D01*
X020450Y006240D01*
X020450Y006220D01*
X020470Y006220D01*
X020470Y005735D01*
X020470Y005290D01*
X020450Y005290D01*
X020450Y006220D01*
X019965Y006220D01*
X019965Y006025D01*
X020234Y005755D01*
X019965Y005485D01*
X019965Y005290D01*
X020450Y005290D01*
X020450Y005270D01*
X020470Y005270D01*
X020470Y004785D01*
X020665Y004785D01*
X020831Y004951D01*
X020830Y004821D01*
X020301Y004258D01*
X018482Y004244D01*
X018570Y004280D01*
X018699Y004409D01*
X018770Y004578D01*
X018770Y005281D01*
X018699Y005451D01*
X018570Y005580D01*
X018401Y005650D01*
X018218Y005650D01*
X018049Y005580D01*
X017920Y005451D01*
X017850Y005281D01*
X017850Y004578D01*
X017920Y004409D01*
X018049Y004280D01*
X018143Y004241D01*
X017462Y004235D01*
X017570Y004280D01*
X017699Y004409D01*
X017770Y004578D01*
X017770Y005281D01*
X017699Y005451D01*
X017570Y005580D01*
X017401Y005650D01*
X017218Y005650D01*
X017049Y005580D01*
X016920Y005451D01*
X016850Y005281D01*
X016850Y004578D01*
X016920Y004409D01*
X017049Y004280D01*
X017162Y004233D01*
X016443Y004227D01*
X016570Y004280D01*
X016699Y004409D01*
X016770Y004578D01*
X016770Y005281D01*
X016699Y005451D01*
X016570Y005580D01*
X016401Y005650D01*
X016218Y005650D01*
X016049Y005580D01*
X015920Y005451D01*
X015850Y005281D01*
X015850Y004578D01*
X015920Y004409D01*
X016049Y004280D01*
X016182Y004225D01*
X014760Y004214D01*
X014760Y004554D01*
X014770Y004578D01*
X014770Y005281D01*
X014699Y005451D01*
X014570Y005580D01*
X014401Y005650D01*
X014218Y005650D01*
X014049Y005580D01*
X013920Y005451D01*
X013850Y005281D01*
X013850Y004578D01*
X013860Y004554D01*
X013860Y004210D01*
X005772Y004210D01*
X005540Y004571D01*
X005540Y017570D01*
X008963Y017570D01*
X009006Y017526D01*
X009138Y017472D01*
X009281Y017472D01*
X009413Y017526D01*
X009513Y017627D01*
X009568Y017759D01*
X009568Y017901D01*
X009513Y018033D01*
X009413Y018134D01*
X009281Y018188D01*
X009138Y018188D01*
X009006Y018134D01*
X008963Y018090D01*
X005540Y018090D01*
X005540Y021181D01*
X006007Y021649D01*
X007004Y021642D01*
X007019Y021636D01*
X007909Y021636D01*
X008607Y021634D01*
X012962Y021601D01*
X012964Y021600D01*
X013058Y021600D01*
X013151Y021599D01*
X013153Y021600D01*
X016480Y021600D01*
X016480Y021331D01*
X016430Y015337D01*
X016430Y015336D01*
X016430Y015281D01*
X016429Y015227D01*
X016430Y015226D01*
X016430Y015224D01*
X016450Y015174D01*
X016471Y015123D01*
X016472Y015123D01*
X016472Y015121D01*
X016511Y015083D01*
X016549Y015044D01*
X016550Y015043D01*
X016551Y015043D01*
X016601Y015022D01*
X016652Y015000D01*
X016653Y015000D01*
X016654Y015000D01*
X016708Y015000D01*
X016763Y015000D01*
X016764Y015000D01*
X020615Y015000D01*
X020718Y015043D01*
X020797Y015121D01*
X020840Y015224D01*
X020813Y015161D02*
X020872Y015161D01*
X020872Y015003D02*
X020621Y015003D01*
X020871Y014844D02*
X015020Y014844D01*
X015020Y014686D02*
X020871Y014686D01*
X020870Y014527D02*
X015020Y014527D01*
X015020Y014369D02*
X020869Y014369D01*
X020869Y014210D02*
X014991Y014210D01*
X014980Y014183D02*
X015020Y014278D01*
X015020Y018933D01*
X015063Y018977D01*
X015118Y019109D01*
X015118Y019251D01*
X015063Y019383D01*
X014963Y019484D01*
X014831Y019538D01*
X014688Y019538D01*
X014556Y019484D01*
X014456Y019383D01*
X014435Y019332D01*
X014413Y019383D01*
X014313Y019484D01*
X014181Y019538D01*
X014038Y019538D01*
X013906Y019484D01*
X013806Y019383D01*
X013751Y019251D01*
X013751Y019109D01*
X013806Y018977D01*
X013906Y018876D01*
X014038Y018822D01*
X014181Y018822D01*
X014203Y018831D01*
X014300Y018777D01*
X014300Y016518D01*
X014023Y016795D01*
X013596Y016795D01*
X013295Y016493D01*
X013295Y016067D01*
X013596Y015765D01*
X014023Y015765D01*
X014300Y016042D01*
X014300Y014790D01*
X012867Y014790D01*
X012707Y014950D01*
X012611Y014990D01*
X011885Y014990D01*
X011859Y014995D01*
X011834Y014990D01*
X011808Y014990D01*
X011784Y014980D01*
X011758Y014975D01*
X011736Y014960D01*
X011712Y014950D01*
X011694Y014932D01*
X011672Y014917D01*
X011657Y014896D01*
X011639Y014877D01*
X011629Y014853D01*
X011485Y014637D01*
X011356Y014584D01*
X011256Y014483D01*
X011201Y014351D01*
X011201Y014209D01*
X011256Y014077D01*
X011356Y013976D01*
X011488Y013922D01*
X011631Y013922D01*
X011763Y013976D01*
X011863Y014077D01*
X011918Y014209D01*
X011918Y014349D01*
X011999Y014470D01*
X012180Y014470D01*
X012151Y014401D01*
X012151Y014259D01*
X012206Y014127D01*
X012306Y014026D01*
X012438Y013972D01*
X012581Y013972D01*
X012713Y014026D01*
X012756Y014070D01*
X014811Y014070D01*
X014907Y014110D01*
X014980Y014183D01*
X015020Y015003D02*
X016647Y015003D01*
X016456Y015161D02*
X015020Y015161D01*
X015020Y015320D02*
X016430Y015320D01*
X016431Y015478D02*
X015020Y015478D01*
X015020Y015637D02*
X016432Y015637D01*
X016434Y015795D02*
X015020Y015795D01*
X015020Y015954D02*
X016435Y015954D01*
X016436Y016112D02*
X015020Y016112D01*
X015020Y016271D02*
X016438Y016271D01*
X016439Y016429D02*
X015020Y016429D01*
X015020Y016588D02*
X016440Y016588D01*
X016442Y016746D02*
X015020Y016746D01*
X015020Y016905D02*
X016443Y016905D01*
X016444Y017063D02*
X015020Y017063D01*
X015020Y017222D02*
X016446Y017222D01*
X016447Y017380D02*
X015020Y017380D01*
X015020Y017539D02*
X016448Y017539D01*
X016449Y017697D02*
X015020Y017697D01*
X015020Y017856D02*
X016451Y017856D01*
X016452Y018014D02*
X015020Y018014D01*
X015020Y018173D02*
X016453Y018173D01*
X016455Y018331D02*
X015020Y018331D01*
X015020Y018490D02*
X016456Y018490D01*
X016457Y018648D02*
X015020Y018648D01*
X015020Y018807D02*
X016459Y018807D01*
X016460Y018965D02*
X015051Y018965D01*
X015118Y019124D02*
X016461Y019124D01*
X016463Y019282D02*
X015105Y019282D01*
X015006Y019441D02*
X016464Y019441D01*
X016465Y019599D02*
X012010Y019599D01*
X012010Y019441D02*
X013863Y019441D01*
X013764Y019282D02*
X012010Y019282D01*
X012010Y019124D02*
X013751Y019124D01*
X013818Y018965D02*
X012010Y018965D01*
X012010Y018807D02*
X014246Y018807D01*
X014300Y018648D02*
X012010Y018648D01*
X012010Y018490D02*
X014300Y018490D01*
X014300Y018331D02*
X012010Y018331D01*
X012010Y018173D02*
X014300Y018173D01*
X014300Y018014D02*
X012010Y018014D01*
X012010Y017856D02*
X014300Y017856D01*
X014300Y017697D02*
X012010Y017697D01*
X012010Y017539D02*
X014300Y017539D01*
X014300Y017380D02*
X012010Y017380D01*
X012010Y017222D02*
X014300Y017222D01*
X014300Y017063D02*
X012010Y017063D01*
X012010Y016905D02*
X014300Y016905D01*
X014300Y016746D02*
X014072Y016746D01*
X014230Y016588D02*
X014300Y016588D01*
X014300Y015954D02*
X014211Y015954D01*
X014300Y015795D02*
X014053Y015795D01*
X014300Y015637D02*
X010840Y015637D01*
X010840Y015795D02*
X012394Y015795D01*
X012404Y015785D02*
X012600Y015785D01*
X012600Y016270D01*
X012620Y016270D01*
X012620Y016290D01*
X013105Y016290D01*
X013105Y016485D01*
X012815Y016775D01*
X012620Y016775D01*
X012620Y016290D01*
X012600Y016290D01*
X012600Y016775D01*
X012404Y016775D01*
X012115Y016485D01*
X012115Y016290D01*
X012600Y016290D01*
X012600Y016270D01*
X012115Y016270D01*
X012115Y016260D01*
X012063Y016383D01*
X012010Y016437D01*
X012010Y020273D01*
X012063Y020327D01*
X012118Y020459D01*
X012118Y020601D01*
X012063Y020733D01*
X011963Y020834D01*
X011831Y020888D01*
X011688Y020888D01*
X011556Y020834D01*
X011456Y020733D01*
X011401Y020601D01*
X011401Y020459D01*
X011456Y020327D01*
X011510Y020273D01*
X011510Y016437D01*
X011456Y016383D01*
X011401Y016251D01*
X011401Y016109D01*
X011456Y015977D01*
X011556Y015876D01*
X011688Y015822D01*
X011831Y015822D01*
X011963Y015876D01*
X012063Y015977D01*
X012115Y016100D01*
X012115Y016075D01*
X012404Y015785D01*
X012600Y015795D02*
X012620Y015795D01*
X012620Y015785D02*
X012815Y015785D01*
X013105Y016075D01*
X013105Y016270D01*
X012620Y016270D01*
X012620Y015785D01*
X012620Y015954D02*
X012600Y015954D01*
X012600Y016112D02*
X012620Y016112D01*
X012620Y016271D02*
X013295Y016271D01*
X013295Y016429D02*
X013105Y016429D01*
X013002Y016588D02*
X013389Y016588D01*
X013547Y016746D02*
X012844Y016746D01*
X012620Y016746D02*
X012600Y016746D01*
X012600Y016588D02*
X012620Y016588D01*
X012620Y016429D02*
X012600Y016429D01*
X012600Y016271D02*
X012110Y016271D01*
X012115Y016429D02*
X012017Y016429D01*
X012010Y016588D02*
X012217Y016588D01*
X012376Y016746D02*
X012010Y016746D01*
X011510Y016746D02*
X010840Y016746D01*
X010840Y016588D02*
X011510Y016588D01*
X011502Y016429D02*
X010840Y016429D01*
X010840Y016271D02*
X011409Y016271D01*
X011401Y016112D02*
X010840Y016112D01*
X010840Y015954D02*
X011479Y015954D01*
X012040Y015954D02*
X012236Y015954D01*
X012825Y015795D02*
X013566Y015795D01*
X013408Y015954D02*
X012983Y015954D01*
X013105Y016112D02*
X013295Y016112D01*
X014300Y015478D02*
X010840Y015478D01*
X010840Y015320D02*
X014300Y015320D01*
X014300Y015161D02*
X010840Y015161D01*
X010840Y015003D02*
X014300Y015003D01*
X014300Y014844D02*
X012813Y014844D01*
X012151Y014369D02*
X011931Y014369D01*
X011918Y014210D02*
X012171Y014210D01*
X012281Y014052D02*
X011838Y014052D01*
X011281Y014052D02*
X010840Y014052D01*
X010840Y014210D02*
X011201Y014210D01*
X011208Y014369D02*
X010840Y014369D01*
X010840Y014527D02*
X011300Y014527D01*
X011517Y014686D02*
X010840Y014686D01*
X010840Y014844D02*
X011623Y014844D01*
X010840Y013893D02*
X020867Y013893D01*
X020867Y013735D02*
X010840Y013735D01*
X010840Y013576D02*
X020866Y013576D01*
X020865Y013418D02*
X020673Y013418D01*
X020620Y013470D02*
X020451Y013540D01*
X020268Y013540D01*
X020099Y013470D01*
X019970Y013341D01*
X019900Y013171D01*
X019900Y012988D01*
X019970Y012819D01*
X020099Y012690D01*
X020268Y012620D01*
X020451Y012620D01*
X020620Y012690D01*
X020749Y012819D01*
X020820Y012988D01*
X020820Y013171D01*
X020749Y013341D01*
X020620Y013470D01*
X020783Y013259D02*
X020865Y013259D01*
X020864Y013101D02*
X020820Y013101D01*
X020800Y012942D02*
X020863Y012942D01*
X020863Y012784D02*
X020714Y012784D01*
X020862Y012625D02*
X020463Y012625D01*
X020256Y012625D02*
X016958Y012625D01*
X016968Y012601D02*
X016913Y012733D01*
X016813Y012834D01*
X016681Y012888D01*
X016538Y012888D01*
X016406Y012834D01*
X016308Y012736D01*
X016318Y012759D01*
X016318Y012901D01*
X016263Y013033D01*
X016163Y013134D01*
X016031Y013188D01*
X015888Y013188D01*
X015756Y013134D01*
X015733Y013110D01*
X010840Y013110D01*
X010840Y020950D01*
X014933Y020950D01*
X014956Y020926D01*
X015088Y020872D01*
X015231Y020872D01*
X015363Y020926D01*
X015463Y021027D01*
X015518Y021159D01*
X015518Y021301D01*
X015463Y021433D01*
X015363Y021534D01*
X015231Y021588D01*
X015088Y021588D01*
X014956Y021534D01*
X014933Y021510D01*
X010504Y021510D01*
X010401Y021467D01*
X010322Y021389D01*
X010280Y021286D01*
X010280Y012774D01*
X010322Y012671D01*
X010401Y012593D01*
X010504Y012550D01*
X015733Y012550D01*
X015756Y012526D01*
X015888Y012472D01*
X016031Y012472D01*
X016163Y012526D01*
X016261Y012624D01*
X016251Y012601D01*
X016251Y012459D01*
X016306Y012327D01*
X016360Y012273D01*
X016360Y012026D01*
X015978Y011602D01*
X015948Y011572D01*
X015945Y011565D01*
X015940Y011560D01*
X015926Y011520D01*
X015910Y011480D01*
X015910Y011473D01*
X015907Y011467D01*
X015910Y011423D01*
X015910Y010887D01*
X015856Y010833D01*
X015801Y010701D01*
X015801Y010559D01*
X015856Y010427D01*
X015956Y010326D01*
X016088Y010272D01*
X016231Y010272D01*
X016363Y010326D01*
X016463Y010427D01*
X016518Y010559D01*
X016518Y010701D01*
X016463Y010833D01*
X016410Y010887D01*
X016410Y011334D01*
X016791Y011758D01*
X016821Y011788D01*
X016824Y011795D01*
X016829Y011800D01*
X016843Y011840D01*
X016860Y011880D01*
X016860Y011887D01*
X016862Y011893D01*
X016860Y011937D01*
X016860Y012273D01*
X016913Y012327D01*
X016968Y012459D01*
X016968Y012601D01*
X016968Y012467D02*
X020861Y012467D01*
X020861Y012308D02*
X016894Y012308D01*
X016860Y012150D02*
X020860Y012150D01*
X020860Y011991D02*
X016860Y011991D01*
X016840Y011833D02*
X020859Y011833D01*
X020858Y011674D02*
X016715Y011674D01*
X016573Y011516D02*
X020044Y011516D01*
X020099Y011570D02*
X019970Y011441D01*
X019900Y011271D01*
X019900Y011088D01*
X019970Y010919D01*
X020099Y010790D01*
X020268Y010720D01*
X020451Y010720D01*
X020620Y010790D01*
X020749Y010919D01*
X020820Y011088D01*
X020820Y011271D01*
X020749Y011441D01*
X020620Y011570D01*
X020451Y011640D01*
X020268Y011640D01*
X020099Y011570D01*
X019935Y011357D02*
X016430Y011357D01*
X016410Y011199D02*
X019900Y011199D01*
X019920Y011040D02*
X016410Y011040D01*
X016415Y010882D02*
X020007Y010882D01*
X020261Y010723D02*
X016509Y010723D01*
X016518Y010565D02*
X020854Y010565D01*
X020854Y010723D02*
X020458Y010723D01*
X020712Y010882D02*
X020855Y010882D01*
X020856Y011040D02*
X020799Y011040D01*
X020820Y011199D02*
X020856Y011199D01*
X020857Y011357D02*
X020784Y011357D01*
X020858Y011516D02*
X020675Y011516D01*
X021818Y011516D02*
X021951Y011516D01*
X021951Y011674D02*
X021818Y011674D01*
X021819Y011833D02*
X021951Y011833D01*
X021951Y011991D02*
X021820Y011991D01*
X021820Y012150D02*
X021951Y012150D01*
X021951Y012308D02*
X021821Y012308D01*
X021822Y012467D02*
X021951Y012467D01*
X021951Y012625D02*
X021822Y012625D01*
X021823Y012784D02*
X021951Y012784D01*
X021951Y012942D02*
X021823Y012942D01*
X021824Y013101D02*
X021951Y013101D01*
X021951Y013259D02*
X021825Y013259D01*
X021825Y013418D02*
X021951Y013418D01*
X021951Y013576D02*
X021826Y013576D01*
X021827Y013735D02*
X021951Y013735D01*
X021951Y013893D02*
X021827Y013893D01*
X021828Y014052D02*
X021951Y014052D01*
X021951Y014210D02*
X021829Y014210D01*
X021829Y014369D02*
X021951Y014369D01*
X021951Y014527D02*
X021830Y014527D01*
X021831Y014686D02*
X021951Y014686D01*
X021951Y014844D02*
X021831Y014844D01*
X021832Y015003D02*
X021951Y015003D01*
X021951Y015161D02*
X021833Y015161D01*
X021833Y015320D02*
X021951Y015320D01*
X021951Y015478D02*
X021834Y015478D01*
X021834Y015637D02*
X021951Y015637D01*
X021951Y015795D02*
X021835Y015795D01*
X021836Y015954D02*
X021951Y015954D01*
X021951Y016112D02*
X021836Y016112D01*
X021837Y016271D02*
X021951Y016271D01*
X021951Y016429D02*
X021838Y016429D01*
X021838Y016588D02*
X021951Y016588D01*
X021951Y016746D02*
X021839Y016746D01*
X021840Y016905D02*
X021951Y016905D01*
X021951Y017063D02*
X021803Y017063D01*
X021697Y017222D02*
X021951Y017222D01*
X021951Y017380D02*
X021688Y017380D01*
X021846Y017539D02*
X021951Y017539D01*
X021951Y017697D02*
X021925Y017697D01*
X021925Y017856D02*
X021951Y017856D01*
X021951Y018014D02*
X021925Y018014D01*
X021951Y018173D02*
X021795Y018173D01*
X021951Y018331D02*
X021637Y018331D01*
X021182Y018331D02*
X020840Y018331D01*
X020840Y018173D02*
X021024Y018173D01*
X020895Y018014D02*
X020840Y018014D01*
X020840Y017856D02*
X020895Y017856D01*
X020895Y017697D02*
X020840Y017697D01*
X020840Y017539D02*
X020973Y017539D01*
X020840Y017380D02*
X021131Y017380D01*
X020878Y016429D02*
X020840Y016429D01*
X020840Y016271D02*
X020877Y016271D01*
X020876Y016112D02*
X020840Y016112D01*
X020840Y015954D02*
X020876Y015954D01*
X020875Y015795D02*
X020840Y015795D01*
X020840Y015637D02*
X020874Y015637D01*
X020874Y015478D02*
X020840Y015478D01*
X020868Y014052D02*
X012738Y014052D01*
X010840Y013418D02*
X020046Y013418D01*
X019936Y013259D02*
X010840Y013259D01*
X010560Y012830D02*
X010560Y021230D01*
X015160Y021230D01*
X015501Y021343D02*
X016480Y021343D01*
X016480Y021501D02*
X015395Y021501D01*
X015518Y021184D02*
X016478Y021184D01*
X016477Y021026D02*
X015462Y021026D01*
X016476Y020867D02*
X011882Y020867D01*
X011637Y020867D02*
X010840Y020867D01*
X010840Y020709D02*
X011446Y020709D01*
X011401Y020550D02*
X010840Y020550D01*
X010840Y020392D02*
X011429Y020392D01*
X011510Y020233D02*
X010840Y020233D01*
X010840Y020075D02*
X011510Y020075D01*
X011510Y019916D02*
X010840Y019916D01*
X010840Y019758D02*
X011510Y019758D01*
X011510Y019599D02*
X010840Y019599D01*
X010840Y019441D02*
X011510Y019441D01*
X011510Y019282D02*
X010840Y019282D01*
X010840Y019124D02*
X011510Y019124D01*
X011510Y018965D02*
X010840Y018965D01*
X010840Y018807D02*
X011510Y018807D01*
X011510Y018648D02*
X010840Y018648D01*
X010840Y018490D02*
X011510Y018490D01*
X011510Y018331D02*
X010840Y018331D01*
X010840Y018173D02*
X011510Y018173D01*
X011510Y018014D02*
X010840Y018014D01*
X010840Y017856D02*
X011510Y017856D01*
X011510Y017697D02*
X010840Y017697D01*
X010840Y017539D02*
X011510Y017539D01*
X011510Y017380D02*
X010840Y017380D01*
X010840Y017222D02*
X011510Y017222D01*
X011510Y017063D02*
X010840Y017063D01*
X010840Y016905D02*
X011510Y016905D01*
X010280Y016905D02*
X005540Y016905D01*
X005540Y017063D02*
X010280Y017063D01*
X010280Y017222D02*
X005540Y017222D01*
X005540Y017380D02*
X010280Y017380D01*
X010280Y017539D02*
X009425Y017539D01*
X009542Y017697D02*
X010280Y017697D01*
X010280Y017856D02*
X009568Y017856D01*
X009521Y018014D02*
X010280Y018014D01*
X010280Y018173D02*
X009319Y018173D01*
X009100Y018173D02*
X005540Y018173D01*
X005540Y018331D02*
X010280Y018331D01*
X010280Y018490D02*
X005540Y018490D01*
X005540Y018648D02*
X010280Y018648D01*
X010280Y018807D02*
X005540Y018807D01*
X005540Y018965D02*
X010280Y018965D01*
X010280Y019124D02*
X005540Y019124D01*
X005540Y019282D02*
X010280Y019282D01*
X010280Y019441D02*
X005540Y019441D01*
X005540Y019599D02*
X010280Y019599D01*
X010280Y019758D02*
X005540Y019758D01*
X005540Y019916D02*
X010280Y019916D01*
X010280Y020075D02*
X005540Y020075D01*
X005540Y020233D02*
X010280Y020233D01*
X010280Y020392D02*
X005540Y020392D01*
X005540Y020550D02*
X005839Y020550D01*
X005954Y020435D02*
X006150Y020435D01*
X006150Y020920D01*
X006170Y020920D01*
X006170Y020940D01*
X006655Y020940D01*
X006655Y021135D01*
X006365Y021425D01*
X006170Y021425D01*
X006170Y020940D01*
X006150Y020940D01*
X006150Y021425D01*
X005954Y021425D01*
X005665Y021135D01*
X005665Y020940D01*
X006150Y020940D01*
X006150Y020920D01*
X005665Y020920D01*
X005665Y020725D01*
X005954Y020435D01*
X006170Y020435D02*
X006365Y020435D01*
X006655Y020725D01*
X006655Y020920D01*
X006170Y020920D01*
X006170Y020435D01*
X006170Y020550D02*
X006150Y020550D01*
X006150Y020709D02*
X006170Y020709D01*
X006170Y020867D02*
X006150Y020867D01*
X006150Y021026D02*
X006170Y021026D01*
X006170Y021184D02*
X006150Y021184D01*
X006150Y021343D02*
X006170Y021343D01*
X006447Y021343D02*
X007094Y021343D01*
X007196Y021445D02*
X006895Y021143D01*
X006895Y020717D01*
X007196Y020415D01*
X007623Y020415D01*
X007925Y020717D01*
X007925Y021143D01*
X007623Y021445D01*
X007196Y021445D01*
X006935Y021184D02*
X006606Y021184D01*
X006655Y021026D02*
X006895Y021026D01*
X006895Y020867D02*
X006655Y020867D01*
X006638Y020709D02*
X006903Y020709D01*
X007061Y020550D02*
X006480Y020550D01*
X005681Y020709D02*
X005540Y020709D01*
X005540Y020867D02*
X005665Y020867D01*
X005665Y021026D02*
X005540Y021026D01*
X005542Y021184D02*
X005714Y021184D01*
X005701Y021343D02*
X005872Y021343D01*
X005859Y021501D02*
X010482Y021501D01*
X010303Y021343D02*
X007725Y021343D01*
X007884Y021184D02*
X010280Y021184D01*
X010280Y021026D02*
X007925Y021026D01*
X007925Y020867D02*
X010280Y020867D01*
X010280Y020709D02*
X007916Y020709D01*
X007758Y020550D02*
X010280Y020550D01*
X012010Y020233D02*
X016470Y020233D01*
X016469Y020075D02*
X012010Y020075D01*
X012010Y019916D02*
X016468Y019916D01*
X016467Y019758D02*
X012010Y019758D01*
X012090Y020392D02*
X016472Y020392D01*
X016473Y020550D02*
X012118Y020550D01*
X012074Y020709D02*
X016474Y020709D01*
X016754Y020709D02*
X019110Y020709D01*
X019110Y020867D02*
X016756Y020867D01*
X016757Y021026D02*
X019110Y021026D01*
X019110Y021184D02*
X016758Y021184D01*
X016760Y021343D02*
X019110Y021343D01*
X019110Y021501D02*
X016760Y021501D01*
X016760Y021660D02*
X019110Y021660D01*
X019110Y021818D02*
X016760Y021818D01*
X016760Y021977D02*
X019110Y021977D01*
X019111Y022135D02*
X016760Y022135D01*
X016753Y020550D02*
X019110Y020550D01*
X019110Y020392D02*
X016752Y020392D01*
X016750Y020233D02*
X019110Y020233D01*
X019110Y020075D02*
X016749Y020075D01*
X016748Y019916D02*
X019110Y019916D01*
X019110Y019758D02*
X016747Y019758D01*
X016745Y019599D02*
X019110Y019599D01*
X019110Y019441D02*
X016744Y019441D01*
X016743Y019282D02*
X019110Y019282D01*
X019110Y019124D02*
X016741Y019124D01*
X016740Y018965D02*
X019110Y018965D01*
X019110Y018807D02*
X016739Y018807D01*
X014513Y019441D02*
X014356Y019441D01*
X010280Y016746D02*
X005540Y016746D01*
X005540Y016588D02*
X010280Y016588D01*
X010280Y016429D02*
X005540Y016429D01*
X005540Y016271D02*
X010280Y016271D01*
X010280Y016112D02*
X005540Y016112D01*
X005540Y015954D02*
X010280Y015954D01*
X010280Y015795D02*
X005540Y015795D01*
X005540Y015637D02*
X010280Y015637D01*
X010280Y015478D02*
X005540Y015478D01*
X005540Y015320D02*
X010280Y015320D01*
X010280Y015161D02*
X005540Y015161D01*
X005540Y015003D02*
X010280Y015003D01*
X010280Y014844D02*
X005540Y014844D01*
X005540Y014686D02*
X010280Y014686D01*
X010280Y014527D02*
X005540Y014527D01*
X005540Y014369D02*
X010280Y014369D01*
X010280Y014210D02*
X005540Y014210D01*
X005540Y014052D02*
X010280Y014052D01*
X010280Y013893D02*
X005540Y013893D01*
X005540Y013735D02*
X010280Y013735D01*
X010280Y013576D02*
X008859Y013576D01*
X008801Y013600D02*
X008618Y013600D01*
X008449Y013530D01*
X008320Y013401D01*
X008250Y013231D01*
X008250Y012528D01*
X008320Y012359D01*
X008449Y012230D01*
X008618Y012160D01*
X008801Y012160D01*
X008970Y012230D01*
X009099Y012359D01*
X009170Y012528D01*
X009170Y013231D01*
X009099Y013401D01*
X008970Y013530D01*
X008801Y013600D01*
X008560Y013576D02*
X007859Y013576D01*
X007801Y013600D02*
X007618Y013600D01*
X007449Y013530D01*
X007320Y013401D01*
X007250Y013231D01*
X007250Y012528D01*
X007320Y012359D01*
X007449Y012230D01*
X007618Y012160D01*
X007801Y012160D01*
X007970Y012230D01*
X008099Y012359D01*
X008170Y012528D01*
X008170Y013231D01*
X008099Y013401D01*
X007970Y013530D01*
X007801Y013600D01*
X007560Y013576D02*
X006859Y013576D01*
X006801Y013600D02*
X006618Y013600D01*
X006449Y013530D01*
X006320Y013401D01*
X006250Y013231D01*
X006250Y012528D01*
X006320Y012359D01*
X006430Y012249D01*
X006430Y012124D01*
X006472Y012021D01*
X006823Y011671D01*
X006823Y011670D01*
X006862Y011631D01*
X006901Y011593D01*
X006902Y011592D01*
X006902Y011592D01*
X006953Y011571D01*
X007004Y011550D01*
X007005Y011550D01*
X007005Y011550D01*
X007060Y011550D01*
X007115Y011550D01*
X007116Y011550D01*
X015180Y011598D01*
X015180Y010968D01*
X015131Y010988D01*
X014988Y010988D01*
X014856Y010934D01*
X014756Y010833D01*
X014701Y010701D01*
X014701Y010659D01*
X014631Y010688D01*
X014488Y010688D01*
X014356Y010634D01*
X014256Y010533D01*
X014201Y010401D01*
X014201Y010375D01*
X013718Y009892D01*
X013648Y009822D01*
X013610Y009730D01*
X013610Y008130D01*
X010493Y008130D01*
X010374Y008219D01*
X010351Y008242D01*
X010334Y008249D01*
X010320Y008260D01*
X010289Y008268D01*
X010259Y008280D01*
X010241Y008280D01*
X010223Y008285D01*
X010213Y008283D01*
X010163Y008334D01*
X010031Y008388D01*
X009888Y008388D01*
X009756Y008334D01*
X009656Y008233D01*
X009601Y008101D01*
X009601Y007959D01*
X009613Y007930D01*
X007516Y007930D01*
X007463Y007984D01*
X007331Y008038D01*
X007188Y008038D01*
X007056Y007984D01*
X006956Y007883D01*
X006901Y007751D01*
X006901Y007609D01*
X006956Y007477D01*
X007056Y007376D01*
X007188Y007322D01*
X007331Y007322D01*
X007463Y007376D01*
X007516Y007430D01*
X014109Y007430D01*
X014201Y007468D01*
X014271Y007538D01*
X014310Y007630D01*
X014310Y009476D01*
X014613Y009780D01*
X015109Y009780D01*
X015201Y009818D01*
X015271Y009888D01*
X015310Y009980D01*
X015310Y010069D01*
X015380Y009982D01*
X015380Y009957D01*
X015356Y009933D01*
X015301Y009801D01*
X015301Y009659D01*
X015356Y009527D01*
X015456Y009426D01*
X015588Y009372D01*
X015731Y009372D01*
X015863Y009426D01*
X015963Y009527D01*
X016018Y009659D01*
X016018Y009801D01*
X015963Y009933D01*
X015940Y009957D01*
X015940Y010064D01*
X015944Y010104D01*
X015940Y010120D01*
X015940Y010136D01*
X015924Y010173D01*
X015913Y010211D01*
X015903Y010224D01*
X015897Y010239D01*
X015868Y010267D01*
X015740Y010428D01*
X015740Y011825D01*
X015740Y011826D01*
X015740Y011881D01*
X015740Y011936D01*
X015739Y011936D01*
X015739Y011937D01*
X015718Y011988D01*
X015697Y012039D01*
X015696Y012039D01*
X015696Y012040D01*
X015657Y012079D01*
X015618Y012117D01*
X015617Y012118D01*
X015566Y012139D01*
X015515Y012160D01*
X015514Y012160D01*
X015514Y012160D01*
X015459Y012160D01*
X015404Y012160D01*
X015403Y012160D01*
X007175Y012111D01*
X007013Y012273D01*
X007099Y012359D01*
X007170Y012528D01*
X007170Y013231D01*
X007099Y013401D01*
X006970Y013530D01*
X006801Y013600D01*
X006560Y013576D02*
X005540Y013576D01*
X005540Y013418D02*
X006336Y013418D01*
X006261Y013259D02*
X005540Y013259D01*
X005540Y013101D02*
X006250Y013101D01*
X006250Y012942D02*
X005540Y012942D01*
X005540Y012784D02*
X006250Y012784D01*
X006250Y012625D02*
X005540Y012625D01*
X005540Y012467D02*
X006275Y012467D01*
X006371Y012308D02*
X005540Y012308D01*
X005540Y012150D02*
X006430Y012150D01*
X006503Y011991D02*
X005540Y011991D01*
X005540Y011833D02*
X006661Y011833D01*
X006820Y011674D02*
X005540Y011674D01*
X005540Y011516D02*
X015180Y011516D01*
X015180Y011357D02*
X005540Y011357D01*
X005540Y011199D02*
X005884Y011199D01*
X005960Y011230D02*
X005776Y011154D01*
X005636Y011013D01*
X005560Y010829D01*
X005560Y010631D01*
X005636Y010447D01*
X005776Y010306D01*
X005960Y010230D01*
X006759Y010230D01*
X006943Y010306D01*
X007083Y010447D01*
X007085Y010450D01*
X010183Y010450D01*
X010206Y010426D01*
X010338Y010372D01*
X010481Y010372D01*
X010613Y010426D01*
X010713Y010527D01*
X010768Y010659D01*
X010768Y010801D01*
X010713Y010933D01*
X010613Y011034D01*
X010481Y011088D01*
X010338Y011088D01*
X010206Y011034D01*
X010183Y011010D01*
X007085Y011010D01*
X007083Y011013D01*
X006943Y011154D01*
X006759Y011230D01*
X005960Y011230D01*
X005662Y011040D02*
X005540Y011040D01*
X005540Y010882D02*
X005581Y010882D01*
X005560Y010723D02*
X005540Y010723D01*
X005540Y010565D02*
X005587Y010565D01*
X005540Y010406D02*
X005676Y010406D01*
X005540Y010248D02*
X005918Y010248D01*
X005947Y010198D02*
X005875Y010175D01*
X005808Y010141D01*
X005747Y010096D01*
X005693Y010043D01*
X005649Y009982D01*
X005615Y009914D01*
X005591Y009842D01*
X005580Y009768D01*
X005580Y009750D01*
X006340Y009750D01*
X006340Y010210D01*
X006022Y010210D01*
X005947Y010198D01*
X005740Y010089D02*
X005540Y010089D01*
X005540Y009931D02*
X005623Y009931D01*
X005580Y009772D02*
X005540Y009772D01*
X005580Y009710D02*
X005580Y009692D01*
X005591Y009618D01*
X005615Y009546D01*
X005649Y009478D01*
X005693Y009417D01*
X005747Y009364D01*
X005808Y009319D01*
X005875Y009285D01*
X005947Y009262D01*
X006022Y009250D01*
X006340Y009250D01*
X006340Y009710D01*
X006380Y009710D01*
X006380Y009750D01*
X007140Y009750D01*
X007140Y009768D01*
X007128Y009842D01*
X007104Y009914D01*
X007070Y009982D01*
X007026Y010043D01*
X006972Y010096D01*
X006911Y010141D01*
X006844Y010175D01*
X006772Y010198D01*
X006697Y010210D01*
X006380Y010210D01*
X006380Y009750D01*
X006340Y009750D01*
X006340Y009710D01*
X005580Y009710D01*
X005593Y009614D02*
X005540Y009614D01*
X005540Y009455D02*
X005666Y009455D01*
X005540Y009297D02*
X005853Y009297D01*
X005960Y009230D02*
X005776Y009154D01*
X005636Y009013D01*
X005560Y008829D01*
X005560Y008631D01*
X005636Y008447D01*
X005776Y008306D01*
X005960Y008230D01*
X006759Y008230D01*
X006943Y008306D01*
X007083Y008447D01*
X007085Y008450D01*
X007515Y008450D01*
X007618Y008493D01*
X008525Y009400D01*
X010183Y009400D01*
X010206Y009376D01*
X010338Y009322D01*
X010481Y009322D01*
X010613Y009376D01*
X010713Y009477D01*
X010768Y009609D01*
X010768Y009751D01*
X010713Y009883D01*
X010613Y009984D01*
X010481Y010038D01*
X010338Y010038D01*
X010206Y009984D01*
X010183Y009960D01*
X008354Y009960D01*
X008251Y009917D01*
X008172Y009839D01*
X007344Y009010D01*
X007085Y009010D01*
X007083Y009013D01*
X006943Y009154D01*
X006759Y009230D01*
X005960Y009230D01*
X005760Y009138D02*
X005540Y009138D01*
X005540Y008980D02*
X005622Y008980D01*
X005560Y008821D02*
X005540Y008821D01*
X005540Y008663D02*
X005560Y008663D01*
X005540Y008504D02*
X005612Y008504D01*
X005540Y008346D02*
X005737Y008346D01*
X005540Y008187D02*
X009637Y008187D01*
X009601Y008029D02*
X007355Y008029D01*
X007164Y008029D02*
X005540Y008029D01*
X005540Y007870D02*
X006950Y007870D01*
X006901Y007712D02*
X005540Y007712D01*
X005540Y007553D02*
X006924Y007553D01*
X007038Y007395D02*
X005540Y007395D01*
X005540Y007236D02*
X005758Y007236D01*
X005776Y007254D02*
X005636Y007113D01*
X005560Y006929D01*
X005560Y006731D01*
X005636Y006547D01*
X005776Y006406D01*
X005960Y006330D01*
X006759Y006330D01*
X006943Y006406D01*
X007083Y006547D01*
X007160Y006731D01*
X007160Y006929D01*
X007083Y007113D01*
X006943Y007254D01*
X006759Y007330D01*
X005960Y007330D01*
X005776Y007254D01*
X005621Y007078D02*
X005540Y007078D01*
X005540Y006919D02*
X005560Y006919D01*
X005560Y006761D02*
X005540Y006761D01*
X005540Y006602D02*
X005613Y006602D01*
X005540Y006444D02*
X005739Y006444D01*
X005808Y006241D02*
X005747Y006196D01*
X005693Y006143D01*
X005649Y006082D01*
X005615Y006014D01*
X005591Y005942D01*
X005580Y005868D01*
X005580Y005850D01*
X006340Y005850D01*
X006340Y006310D01*
X006022Y006310D01*
X005947Y006298D01*
X005875Y006275D01*
X005808Y006241D01*
X005907Y006285D02*
X005540Y006285D01*
X005540Y006127D02*
X005682Y006127D01*
X005600Y005968D02*
X005540Y005968D01*
X005540Y005810D02*
X005580Y005810D01*
X005580Y005792D01*
X005591Y005718D01*
X005615Y005646D01*
X005649Y005578D01*
X005693Y005517D01*
X005747Y005464D01*
X005808Y005419D01*
X005875Y005385D01*
X005947Y005362D01*
X006022Y005350D01*
X006340Y005350D01*
X006340Y005810D01*
X006380Y005810D01*
X006380Y005850D01*
X007140Y005850D01*
X007140Y005868D01*
X007128Y005942D01*
X007104Y006014D01*
X007070Y006082D01*
X007026Y006143D01*
X006972Y006196D01*
X006911Y006241D01*
X006844Y006275D01*
X006772Y006298D01*
X006697Y006310D01*
X006380Y006310D01*
X006380Y005850D01*
X006340Y005850D01*
X006340Y005810D01*
X005580Y005810D01*
X005613Y005651D02*
X005540Y005651D01*
X005540Y005493D02*
X005718Y005493D01*
X005540Y005334D02*
X012871Y005334D01*
X012850Y005281D02*
X012920Y005451D01*
X013049Y005580D01*
X013218Y005650D01*
X013245Y005650D01*
X013380Y006073D01*
X013380Y006086D01*
X013396Y006126D01*
X013410Y006168D01*
X013417Y006177D01*
X013422Y006189D01*
X013453Y006220D01*
X013481Y006253D01*
X013492Y006259D01*
X013501Y006267D01*
X013541Y006284D01*
X013580Y006304D01*
X013593Y006305D01*
X013604Y006310D01*
X013648Y006310D01*
X013691Y006314D01*
X013703Y006310D01*
X015366Y006310D01*
X015580Y006470D01*
X015580Y007253D01*
X015556Y007277D01*
X015501Y007409D01*
X015501Y007551D01*
X015556Y007683D01*
X015656Y007784D01*
X015788Y007838D01*
X015931Y007838D01*
X016063Y007784D01*
X016163Y007683D01*
X016218Y007551D01*
X016218Y007409D01*
X016163Y007277D01*
X016140Y007253D01*
X016140Y006365D01*
X016145Y006346D01*
X016140Y006310D01*
X016140Y006274D01*
X016132Y006255D01*
X016129Y006235D01*
X016111Y006204D01*
X016097Y006171D01*
X016082Y006157D01*
X016072Y006139D01*
X016043Y006118D01*
X016018Y006093D01*
X015999Y006085D01*
X015643Y005818D01*
X015618Y005793D01*
X015599Y005785D01*
X015583Y005773D01*
X015548Y005764D01*
X015515Y005750D01*
X015495Y005750D01*
X015475Y005745D01*
X015440Y005750D01*
X013864Y005750D01*
X013739Y005356D01*
X013770Y005281D01*
X013770Y004578D01*
X013699Y004409D01*
X013570Y004280D01*
X013401Y004210D01*
X013218Y004210D01*
X013049Y004280D01*
X012920Y004409D01*
X012850Y004578D01*
X012850Y005281D01*
X012850Y005176D02*
X007021Y005176D01*
X007083Y005113D02*
X006943Y005254D01*
X006759Y005330D01*
X005960Y005330D01*
X005776Y005254D01*
X005636Y005113D01*
X005560Y004929D01*
X005560Y004731D01*
X005636Y004547D01*
X005776Y004406D01*
X005960Y004330D01*
X006759Y004330D01*
X006943Y004406D01*
X007083Y004547D01*
X007160Y004731D01*
X007160Y004929D01*
X007083Y005113D01*
X007123Y005017D02*
X012850Y005017D01*
X012850Y004859D02*
X007160Y004859D01*
X007147Y004700D02*
X012850Y004700D01*
X012865Y004542D02*
X007078Y004542D01*
X006887Y004383D02*
X012946Y004383D01*
X013183Y004225D02*
X005762Y004225D01*
X005832Y004383D02*
X005660Y004383D01*
X005641Y004542D02*
X005558Y004542D01*
X005572Y004700D02*
X005540Y004700D01*
X005540Y004859D02*
X005560Y004859D01*
X005540Y005017D02*
X005596Y005017D01*
X005540Y005176D02*
X005698Y005176D01*
X006340Y005493D02*
X006380Y005493D01*
X006380Y005350D02*
X006697Y005350D01*
X006772Y005362D01*
X006844Y005385D01*
X006911Y005419D01*
X006972Y005464D01*
X007026Y005517D01*
X007070Y005578D01*
X007104Y005646D01*
X007128Y005718D01*
X007140Y005792D01*
X007140Y005810D01*
X006380Y005810D01*
X006380Y005350D01*
X006380Y005651D02*
X006340Y005651D01*
X006340Y005810D02*
X006380Y005810D01*
X006380Y005968D02*
X006340Y005968D01*
X006340Y006127D02*
X006380Y006127D01*
X006380Y006285D02*
X006340Y006285D01*
X006812Y006285D02*
X013543Y006285D01*
X013396Y006127D02*
X007037Y006127D01*
X007119Y005968D02*
X013346Y005968D01*
X013296Y005810D02*
X007140Y005810D01*
X007106Y005651D02*
X013245Y005651D01*
X012961Y005493D02*
X007001Y005493D01*
X006980Y006444D02*
X015544Y006444D01*
X015580Y006602D02*
X007106Y006602D01*
X007160Y006761D02*
X015580Y006761D01*
X015580Y006919D02*
X007160Y006919D01*
X007098Y007078D02*
X015580Y007078D01*
X015580Y007236D02*
X006961Y007236D01*
X007481Y007395D02*
X015507Y007395D01*
X015502Y007553D02*
X014278Y007553D01*
X014310Y007712D02*
X015584Y007712D01*
X015860Y007480D02*
X015860Y006330D01*
X015460Y006030D01*
X013660Y006030D01*
X013310Y004930D01*
X013770Y004859D02*
X013850Y004859D01*
X013850Y005017D02*
X013770Y005017D01*
X013770Y005176D02*
X013850Y005176D01*
X013871Y005334D02*
X013748Y005334D01*
X013782Y005493D02*
X013961Y005493D01*
X013833Y005651D02*
X020130Y005651D01*
X020180Y005810D02*
X015635Y005810D01*
X015540Y005566D02*
X015478Y005598D01*
X015413Y005619D01*
X015344Y005630D01*
X015310Y005630D01*
X015310Y004930D01*
X015750Y004930D01*
X015750Y005225D01*
X015739Y005293D01*
X015717Y005359D01*
X015686Y005421D01*
X015645Y005477D01*
X015596Y005526D01*
X015540Y005566D01*
X015629Y005493D02*
X015961Y005493D01*
X015871Y005334D02*
X015725Y005334D01*
X015750Y005176D02*
X015850Y005176D01*
X015850Y005017D02*
X015750Y005017D01*
X015750Y004930D02*
X015310Y004930D01*
X015310Y004930D01*
X015310Y004230D01*
X015344Y004230D01*
X015413Y004241D01*
X015478Y004262D01*
X015540Y004294D01*
X015596Y004334D01*
X015645Y004383D01*
X015946Y004383D01*
X015865Y004542D02*
X015730Y004542D01*
X015739Y004567D02*
X015750Y004635D01*
X015750Y004930D01*
X015750Y004859D02*
X015850Y004859D01*
X015850Y004700D02*
X015750Y004700D01*
X015739Y004567D02*
X015717Y004501D01*
X015686Y004439D01*
X015645Y004383D01*
X016106Y004225D02*
X014760Y004225D01*
X014760Y004383D02*
X014974Y004383D01*
X015023Y004334D01*
X015079Y004294D01*
X015141Y004262D01*
X015206Y004241D01*
X015275Y004230D01*
X015310Y004230D01*
X015310Y004930D01*
X015310Y004930D01*
X015310Y004930D01*
X015310Y005630D01*
X015275Y005630D01*
X015206Y005619D01*
X015141Y005598D01*
X015079Y005566D01*
X015023Y005526D01*
X014974Y005477D01*
X014933Y005421D01*
X014902Y005359D01*
X014880Y005293D01*
X014870Y005225D01*
X014870Y004930D01*
X014870Y004635D01*
X014880Y004567D01*
X014902Y004501D01*
X014933Y004439D01*
X014974Y004383D01*
X014889Y004542D02*
X014760Y004542D01*
X014770Y004700D02*
X014870Y004700D01*
X014870Y004859D02*
X014770Y004859D01*
X014870Y004930D02*
X015310Y004930D01*
X015310Y004930D01*
X014870Y004930D01*
X014870Y005017D02*
X014770Y005017D01*
X014770Y005176D02*
X014870Y005176D01*
X014894Y005334D02*
X014748Y005334D01*
X014658Y005493D02*
X014990Y005493D01*
X015310Y005493D02*
X015310Y005493D01*
X015310Y005334D02*
X015310Y005334D01*
X015310Y005176D02*
X015310Y005176D01*
X015310Y005017D02*
X015310Y005017D01*
X015310Y004859D02*
X015310Y004859D01*
X015310Y004700D02*
X015310Y004700D01*
X015310Y004542D02*
X015310Y004542D01*
X015310Y004383D02*
X015310Y004383D01*
X013860Y004383D02*
X013673Y004383D01*
X013754Y004542D02*
X013860Y004542D01*
X013850Y004700D02*
X013770Y004700D01*
X013860Y004225D02*
X013436Y004225D01*
X015844Y005968D02*
X020021Y005968D01*
X019965Y006127D02*
X016055Y006127D01*
X016140Y006285D02*
X019965Y006285D01*
X019973Y006444D02*
X016140Y006444D01*
X016140Y006602D02*
X020131Y006602D01*
X020450Y006602D02*
X020470Y006602D01*
X020470Y006444D02*
X020450Y006444D01*
X020450Y006285D02*
X020470Y006285D01*
X020470Y006127D02*
X020450Y006127D01*
X020450Y005968D02*
X020470Y005968D01*
X020470Y005810D02*
X020450Y005810D01*
X020450Y005651D02*
X020470Y005651D01*
X020470Y005493D02*
X020450Y005493D01*
X020450Y005334D02*
X020470Y005334D01*
X020450Y005270D02*
X019965Y005270D01*
X019965Y005075D01*
X020254Y004785D01*
X020450Y004785D01*
X020450Y005270D01*
X020450Y005176D02*
X020470Y005176D01*
X020470Y005017D02*
X020450Y005017D01*
X020450Y004859D02*
X020470Y004859D01*
X020738Y004859D02*
X020830Y004859D01*
X020716Y004700D02*
X018770Y004700D01*
X018770Y004859D02*
X020181Y004859D01*
X020022Y005017D02*
X018770Y005017D01*
X018770Y005176D02*
X019965Y005176D01*
X019965Y005334D02*
X018748Y005334D01*
X018658Y005493D02*
X019972Y005493D01*
X020567Y004542D02*
X018754Y004542D01*
X018673Y004383D02*
X020418Y004383D01*
X021139Y003749D02*
X021951Y003749D01*
X021951Y003591D02*
X020990Y003591D01*
X020841Y003432D02*
X021951Y003432D01*
X021951Y003274D02*
X017226Y003274D01*
X016946Y004383D02*
X016673Y004383D01*
X016754Y004542D02*
X016865Y004542D01*
X016850Y004700D02*
X016770Y004700D01*
X016770Y004859D02*
X016850Y004859D01*
X016850Y005017D02*
X016770Y005017D01*
X016770Y005176D02*
X016850Y005176D01*
X016871Y005334D02*
X016748Y005334D01*
X016658Y005493D02*
X016961Y005493D01*
X017658Y005493D02*
X017961Y005493D01*
X017871Y005334D02*
X017748Y005334D01*
X017770Y005176D02*
X017850Y005176D01*
X017850Y005017D02*
X017770Y005017D01*
X017770Y004859D02*
X017850Y004859D01*
X017850Y004700D02*
X017770Y004700D01*
X017754Y004542D02*
X017865Y004542D01*
X017946Y004383D02*
X017673Y004383D01*
X016140Y006761D02*
X020838Y006761D01*
X020839Y006919D02*
X016140Y006919D01*
X016140Y007078D02*
X020840Y007078D01*
X020840Y007236D02*
X016140Y007236D01*
X016212Y007395D02*
X020841Y007395D01*
X020841Y007553D02*
X016217Y007553D01*
X016135Y007712D02*
X020842Y007712D01*
X020843Y007870D02*
X014310Y007870D01*
X014310Y008029D02*
X020843Y008029D01*
X020844Y008187D02*
X014310Y008187D01*
X014310Y008346D02*
X020845Y008346D01*
X020845Y008504D02*
X014310Y008504D01*
X014310Y008663D02*
X020846Y008663D01*
X020847Y008821D02*
X014310Y008821D01*
X014310Y008980D02*
X020847Y008980D01*
X020848Y009138D02*
X014310Y009138D01*
X014310Y009297D02*
X020849Y009297D01*
X020849Y009455D02*
X015891Y009455D01*
X015999Y009614D02*
X020850Y009614D01*
X020850Y009772D02*
X016018Y009772D01*
X015964Y009931D02*
X020851Y009931D01*
X020852Y010089D02*
X015942Y010089D01*
X015888Y010248D02*
X020852Y010248D01*
X020853Y010406D02*
X016442Y010406D01*
X015877Y010406D02*
X015757Y010406D01*
X015740Y010565D02*
X015801Y010565D01*
X015810Y010723D02*
X015740Y010723D01*
X015740Y010882D02*
X015904Y010882D01*
X015910Y011040D02*
X015740Y011040D01*
X015740Y011199D02*
X015910Y011199D01*
X015910Y011357D02*
X015740Y011357D01*
X015740Y011516D02*
X015924Y011516D01*
X016043Y011674D02*
X015740Y011674D01*
X015740Y011833D02*
X016185Y011833D01*
X016328Y011991D02*
X015717Y011991D01*
X015617Y012118D02*
X015617Y012118D01*
X015541Y012150D02*
X016360Y012150D01*
X016325Y012308D02*
X009048Y012308D01*
X009144Y012467D02*
X016251Y012467D01*
X016318Y012784D02*
X016356Y012784D01*
X016301Y012942D02*
X019919Y012942D01*
X019900Y013101D02*
X016196Y013101D01*
X015960Y012830D02*
X010560Y012830D01*
X010369Y012625D02*
X009170Y012625D01*
X009170Y012784D02*
X010280Y012784D01*
X010280Y012942D02*
X009170Y012942D01*
X009170Y013101D02*
X010280Y013101D01*
X010280Y013259D02*
X009158Y013259D01*
X009083Y013418D02*
X010280Y013418D01*
X008336Y013418D02*
X008083Y013418D01*
X008158Y013259D02*
X008261Y013259D01*
X008250Y013101D02*
X008170Y013101D01*
X008170Y012942D02*
X008250Y012942D01*
X008250Y012784D02*
X008170Y012784D01*
X008170Y012625D02*
X008250Y012625D01*
X008275Y012467D02*
X008144Y012467D01*
X008048Y012308D02*
X008371Y012308D01*
X007371Y012308D02*
X007048Y012308D01*
X007136Y012150D02*
X013698Y012150D01*
X014804Y010882D02*
X010735Y010882D01*
X010768Y010723D02*
X011146Y010723D01*
X011156Y010734D02*
X011056Y010633D01*
X011001Y010501D01*
X011001Y010359D01*
X011056Y010227D01*
X011110Y010173D01*
X011110Y009834D01*
X010768Y009492D01*
X010698Y009422D01*
X010660Y009330D01*
X010660Y008987D01*
X010606Y008933D01*
X010551Y008801D01*
X010551Y008659D01*
X010606Y008527D01*
X010706Y008426D01*
X010838Y008372D01*
X010981Y008372D01*
X011113Y008426D01*
X011213Y008527D01*
X011268Y008659D01*
X011268Y008801D01*
X011213Y008933D01*
X011160Y008987D01*
X011160Y009176D01*
X011571Y009588D01*
X011610Y009680D01*
X011610Y010173D01*
X011663Y010227D01*
X011718Y010359D01*
X011718Y010501D01*
X011663Y010633D01*
X011563Y010734D01*
X011431Y010788D01*
X011288Y010788D01*
X011156Y010734D01*
X011027Y010565D02*
X010729Y010565D01*
X010564Y010406D02*
X011001Y010406D01*
X011047Y010248D02*
X006801Y010248D01*
X006979Y010089D02*
X011110Y010089D01*
X011110Y009931D02*
X010666Y009931D01*
X010759Y009772D02*
X011048Y009772D01*
X010889Y009614D02*
X010768Y009614D01*
X010731Y009455D02*
X010691Y009455D01*
X010660Y009297D02*
X008422Y009297D01*
X008264Y009138D02*
X010660Y009138D01*
X010652Y008980D02*
X008105Y008980D01*
X007947Y008821D02*
X010559Y008821D01*
X010551Y008663D02*
X007788Y008663D01*
X007630Y008504D02*
X010629Y008504D01*
X010417Y008187D02*
X013610Y008187D01*
X013610Y008346D02*
X010134Y008346D01*
X009785Y008346D02*
X006982Y008346D01*
X007460Y008730D02*
X006360Y008730D01*
X006380Y009250D02*
X006697Y009250D01*
X006772Y009262D01*
X006844Y009285D01*
X006911Y009319D01*
X006972Y009364D01*
X007026Y009417D01*
X007070Y009478D01*
X007104Y009546D01*
X007128Y009618D01*
X007140Y009692D01*
X007140Y009710D01*
X006380Y009710D01*
X006380Y009250D01*
X006380Y009297D02*
X006340Y009297D01*
X006340Y009455D02*
X006380Y009455D01*
X006380Y009614D02*
X006340Y009614D01*
X006340Y009772D02*
X006380Y009772D01*
X006380Y009931D02*
X006340Y009931D01*
X006340Y010089D02*
X006380Y010089D01*
X007096Y009931D02*
X008283Y009931D01*
X008106Y009772D02*
X007139Y009772D01*
X007126Y009614D02*
X007947Y009614D01*
X007789Y009455D02*
X007053Y009455D01*
X006866Y009297D02*
X007630Y009297D01*
X007472Y009138D02*
X006959Y009138D01*
X007460Y008730D02*
X008410Y009680D01*
X010410Y009680D01*
X010255Y010406D02*
X007043Y010406D01*
X006360Y010730D02*
X010410Y010730D01*
X010598Y011040D02*
X015180Y011040D01*
X015180Y011199D02*
X006835Y011199D01*
X007057Y011040D02*
X010221Y011040D01*
X011573Y010723D02*
X014710Y010723D01*
X014287Y010565D02*
X011692Y010565D01*
X011718Y010406D02*
X014203Y010406D01*
X014073Y010248D02*
X011672Y010248D01*
X011610Y010089D02*
X013915Y010089D01*
X013756Y009931D02*
X011610Y009931D01*
X011610Y009772D02*
X013627Y009772D01*
X013610Y009614D02*
X011582Y009614D01*
X011438Y009455D02*
X013610Y009455D01*
X013610Y009297D02*
X011280Y009297D01*
X011160Y009138D02*
X013610Y009138D01*
X013610Y008980D02*
X011167Y008980D01*
X011260Y008821D02*
X013610Y008821D01*
X013610Y008663D02*
X011268Y008663D01*
X011190Y008504D02*
X013610Y008504D01*
X014310Y009455D02*
X015428Y009455D01*
X015320Y009614D02*
X014447Y009614D01*
X014605Y009772D02*
X015301Y009772D01*
X015289Y009931D02*
X015355Y009931D01*
X015660Y010080D02*
X015460Y010330D01*
X015460Y011880D01*
X007060Y011830D01*
X006710Y012180D01*
X006710Y012880D01*
X007170Y012942D02*
X007250Y012942D01*
X007250Y012784D02*
X007170Y012784D01*
X007170Y012625D02*
X007250Y012625D01*
X007275Y012467D02*
X007144Y012467D01*
X007170Y013101D02*
X007250Y013101D01*
X007261Y013259D02*
X007158Y013259D01*
X007083Y013418D02*
X007336Y013418D01*
X008994Y017539D02*
X005540Y017539D01*
X015660Y010080D02*
X015660Y009730D01*
X016863Y012784D02*
X020005Y012784D01*
X021817Y011357D02*
X021951Y011357D01*
X021951Y011199D02*
X021816Y011199D01*
X021816Y011040D02*
X021951Y011040D01*
X021951Y010882D02*
X021815Y010882D01*
X021814Y010723D02*
X021951Y010723D01*
X021951Y010565D02*
X021814Y010565D01*
X021813Y010406D02*
X021951Y010406D01*
X021951Y010248D02*
X021812Y010248D01*
X021812Y010089D02*
X021951Y010089D01*
X021951Y009931D02*
X021811Y009931D01*
X021811Y009772D02*
X021951Y009772D01*
X021951Y009614D02*
X021810Y009614D01*
X021809Y009455D02*
X021951Y009455D01*
X021951Y009297D02*
X021809Y009297D01*
X021808Y009138D02*
X021951Y009138D01*
X021951Y008980D02*
X021807Y008980D01*
X021807Y008821D02*
X021951Y008821D01*
X021951Y008663D02*
X021806Y008663D01*
X021805Y008504D02*
X021951Y008504D01*
X021951Y008346D02*
X021805Y008346D01*
X021804Y008187D02*
X021951Y008187D01*
X021951Y008029D02*
X021803Y008029D01*
X021803Y007870D02*
X021951Y007870D01*
X021951Y007712D02*
X021802Y007712D01*
X021801Y007553D02*
X021951Y007553D01*
X021951Y007395D02*
X021801Y007395D01*
X021800Y007236D02*
X021951Y007236D01*
X021951Y007078D02*
X021800Y007078D01*
X021799Y006919D02*
X021951Y006919D01*
X021951Y006761D02*
X021798Y006761D01*
X021798Y006602D02*
X021951Y006602D01*
X021951Y006444D02*
X021797Y006444D01*
X021796Y006285D02*
X021951Y006285D01*
X021951Y006127D02*
X021796Y006127D01*
X021795Y005968D02*
X021951Y005968D01*
X021951Y005810D02*
X021794Y005810D01*
X021794Y005651D02*
X021951Y005651D01*
X021951Y005493D02*
X021793Y005493D01*
X021792Y005334D02*
X021951Y005334D01*
X021951Y005176D02*
X021792Y005176D01*
X021791Y005017D02*
X021951Y005017D01*
X021951Y004859D02*
X021790Y004859D01*
X021790Y004700D02*
X021951Y004700D01*
X021951Y004542D02*
X021789Y004542D01*
X021729Y004383D02*
X021951Y004383D01*
X021951Y004225D02*
X021587Y004225D01*
X021438Y004066D02*
X021951Y004066D01*
X021951Y003908D02*
X021289Y003908D01*
X020838Y006602D02*
X020788Y006602D01*
X021836Y018807D02*
X021951Y018807D01*
X021951Y018965D02*
X021905Y018965D01*
X021905Y019124D02*
X021951Y019124D01*
X021951Y019282D02*
X021905Y019282D01*
X021951Y019441D02*
X021749Y019441D01*
D15*
X019560Y017780D03*
X019160Y018480D03*
X018510Y018630D03*
X018160Y018080D03*
X017810Y018530D03*
X017510Y018030D03*
X017010Y018280D03*
X017010Y017580D03*
X017110Y016930D03*
X017760Y017430D03*
X018160Y017430D03*
X017960Y016880D03*
X018160Y016330D03*
X017760Y016330D03*
X017060Y016130D03*
X016910Y015530D03*
X016210Y014330D03*
X017310Y013730D03*
X016610Y012530D03*
X016110Y012180D03*
X015960Y012830D03*
X014510Y011230D03*
X015060Y010630D03*
X014560Y010330D03*
X015660Y009730D03*
X016160Y010630D03*
X017960Y010680D03*
X019510Y009080D03*
X018610Y008330D03*
X018910Y007030D03*
X017510Y006280D03*
X015860Y007480D03*
X014860Y006530D03*
X014510Y008380D03*
X012560Y007230D03*
X012460Y006130D03*
X012510Y004480D03*
X009960Y008030D03*
X009960Y008730D03*
X010910Y008730D03*
X011860Y008780D03*
X010410Y009680D03*
X009710Y010180D03*
X010410Y010730D03*
X010760Y011330D03*
X011360Y010430D03*
X013460Y010680D03*
X013810Y012380D03*
X012510Y014330D03*
X011560Y014280D03*
X011310Y013430D03*
X009960Y012530D03*
X008360Y011280D03*
X007660Y009930D03*
X008460Y008880D03*
X007260Y007680D03*
X005060Y007680D03*
X004310Y008280D03*
X004260Y011380D03*
X006060Y014380D03*
X005910Y015230D03*
X005960Y015980D03*
X005110Y016930D03*
X006010Y017380D03*
X005810Y018780D03*
X008360Y018330D03*
X009210Y017830D03*
X010010Y018130D03*
X011210Y018180D03*
X012110Y017680D03*
X011760Y016180D03*
X014160Y017380D03*
X013610Y018680D03*
X014110Y019180D03*
X014760Y019180D03*
X015260Y019430D03*
X015260Y018680D03*
X017110Y019080D03*
X018010Y019080D03*
X018760Y019280D03*
X018910Y017430D03*
X019360Y016880D03*
X018910Y016080D03*
X018460Y015480D03*
X018910Y014630D03*
X019710Y015880D03*
X020610Y014830D03*
X021360Y016880D03*
X018510Y012880D03*
X015560Y015680D03*
X011760Y020530D03*
X013060Y022080D03*
X014010Y020730D03*
X015160Y021230D03*
X015960Y021230D03*
X021660Y022330D03*
X008609Y022114D03*
X004760Y022330D03*
X004310Y015080D03*
X004510Y003630D03*
X017160Y008480D03*
D16*
X021310Y004630D02*
X021360Y016880D01*
X018860Y022080D02*
X013060Y022080D01*
X008609Y022114D01*
X007909Y022116D01*
X007710Y022116D01*
X007115Y022116D01*
X007109Y022121D02*
X005810Y022130D01*
X005060Y021380D01*
X005060Y017830D01*
X005060Y016930D01*
X005060Y007680D01*
X005060Y004430D01*
X005510Y003730D01*
X014310Y003730D01*
X020510Y003780D01*
X021310Y004630D01*
D17*
X011560Y014280D02*
X011860Y014730D01*
X012560Y014730D01*
X012760Y014530D01*
X014560Y014530D01*
X014560Y018930D01*
X014110Y019180D01*
X014760Y019180D02*
X014760Y014330D01*
X012510Y014330D01*
X009210Y017830D02*
X005060Y017830D01*
X005060Y016930D02*
X005110Y016930D01*
D18*
X014310Y004930D02*
X014310Y003730D01*
D19*
X008609Y022114D02*
X007710Y022116D01*
X007115Y022116D02*
X007109Y022121D01*
D20*
X019360Y016880D02*
X021360Y016880D01*
D21*
X016610Y012530D02*
X016610Y011930D01*
X016160Y011430D01*
X016160Y010630D01*
X015060Y010630D02*
X015060Y010030D01*
X014510Y010030D01*
X014060Y009580D01*
X014060Y007680D01*
X007260Y007680D01*
X009960Y008030D02*
X010210Y008030D01*
X010410Y007880D01*
X013860Y007880D01*
X013860Y009680D01*
X014460Y010280D01*
X014560Y010330D01*
X011360Y010430D02*
X011360Y009730D01*
X010910Y009280D01*
X010910Y008730D01*
X011760Y016180D02*
X011760Y020530D01*
M02*
