G75*
%MOIN*%
%OFA0B0*%
%FSLAX24Y24*%
%IPPOS*%
%LPD*%
%AMOC8*
5,1,8,0,0,1.08239X$1,22.5*
%
%ADD10R,0.0670X0.0552*%
%ADD11R,0.0453X0.0465*%
%ADD12R,0.0465X0.0453*%
%ADD13R,0.0985X0.0670*%
%ADD14R,0.0552X0.0670*%
%ADD15R,0.0631X0.0237*%
%ADD16R,0.0237X0.0631*%
%ADD17R,0.0512X0.0512*%
%ADD18OC8,0.0670*%
%ADD19C,0.0560*%
%ADD20C,0.0560*%
%ADD21R,0.0631X0.0552*%
%ADD22R,0.0552X0.0631*%
%ADD23C,0.0640*%
%ADD24R,0.0300X0.0840*%
%ADD25R,0.0827X0.0631*%
%ADD26R,0.0827X0.1536*%
%ADD27R,0.0197X0.0512*%
%ADD28R,0.0827X0.0827*%
%ADD29R,0.1812X0.0827*%
D10*
X005110Y007686D03*
X005110Y008474D03*
X009210Y014506D03*
X009210Y015254D03*
X009210Y016206D03*
X009210Y016954D03*
X010310Y015254D03*
X010310Y014506D03*
X011660Y011774D03*
X011660Y010986D03*
X015010Y007924D03*
X015010Y007136D03*
X018710Y009736D03*
X018710Y010524D03*
X020360Y009374D03*
X020360Y008586D03*
X017610Y014686D03*
X017610Y015474D03*
X014710Y015424D03*
X014710Y014636D03*
X005110Y016086D03*
X005110Y016874D03*
D11*
X008515Y021130D03*
X009204Y021130D03*
X013715Y021430D03*
X014404Y021430D03*
X011004Y016180D03*
X010315Y016180D03*
D12*
X010710Y017236D03*
X010710Y017924D03*
X010710Y021086D03*
X010710Y021774D03*
X013060Y021436D03*
X013060Y022124D03*
X015310Y017124D03*
X015310Y016436D03*
D13*
X017910Y021089D03*
X017910Y022271D03*
X020260Y021571D03*
X020260Y020389D03*
D14*
X020503Y019330D03*
X019716Y019330D03*
X018903Y013730D03*
X018116Y013730D03*
X008553Y022080D03*
X007766Y022080D03*
X007184Y018080D03*
X006435Y018080D03*
D15*
X012726Y012855D03*
X012726Y012540D03*
X012726Y012225D03*
X012726Y011910D03*
X012726Y011595D03*
X012726Y011280D03*
X012726Y010965D03*
X012726Y010650D03*
X012726Y010335D03*
X012726Y010020D03*
X012726Y009705D03*
X017293Y009705D03*
X017293Y010020D03*
X017293Y010335D03*
X017293Y010650D03*
X017293Y010965D03*
X017293Y011280D03*
X017293Y011595D03*
X017293Y011910D03*
X017293Y012225D03*
X017293Y012540D03*
X017293Y012855D03*
D16*
X016584Y013563D03*
X016269Y013563D03*
X015954Y013563D03*
X015639Y013563D03*
X015324Y013563D03*
X015010Y013563D03*
X014695Y013563D03*
X014380Y013563D03*
X014065Y013563D03*
X013750Y013563D03*
X013435Y013563D03*
X013435Y008997D03*
X013750Y008997D03*
X014065Y008997D03*
X014380Y008997D03*
X014695Y008997D03*
X015010Y008997D03*
X015324Y008997D03*
X015639Y008997D03*
X015954Y008997D03*
X016269Y008997D03*
X016584Y008997D03*
D17*
X011860Y005593D03*
X011860Y004767D03*
X010910Y004767D03*
X010910Y005593D03*
X009960Y005593D03*
X009960Y004767D03*
X009010Y004767D03*
X009010Y005593D03*
X008060Y005593D03*
X008060Y004767D03*
D18*
X012610Y016280D03*
X013810Y016280D03*
X007410Y020930D03*
X006160Y020930D03*
X020460Y006230D03*
X020460Y005280D03*
X021410Y017830D03*
X021410Y019080D03*
D19*
X008710Y013140D02*
X008710Y012620D01*
X007710Y012620D02*
X007710Y013140D01*
X006710Y013140D02*
X006710Y012620D01*
X013310Y005190D02*
X013310Y004670D01*
X014310Y004670D02*
X014310Y005190D01*
X015310Y005190D02*
X015310Y004670D01*
X016310Y004670D02*
X016310Y005190D01*
X017310Y005190D02*
X017310Y004670D01*
X018310Y004670D02*
X018310Y005190D01*
D20*
X020360Y011180D03*
X020360Y013080D03*
D21*
X012510Y014306D03*
X012510Y015054D03*
X011510Y015054D03*
X011510Y014306D03*
X011860Y008054D03*
X011860Y007306D03*
X010910Y007306D03*
X010910Y008054D03*
X009960Y008054D03*
X009960Y007306D03*
X009010Y007306D03*
X009010Y008054D03*
X008060Y008054D03*
X008060Y007306D03*
D22*
X013135Y006430D03*
X013884Y006430D03*
D23*
X006660Y004830D02*
X006060Y004830D01*
X006060Y005830D02*
X006660Y005830D01*
X006660Y006830D02*
X006060Y006830D01*
X006060Y008730D02*
X006660Y008730D01*
X006660Y009730D02*
X006060Y009730D01*
X006060Y010730D02*
X006660Y010730D01*
D24*
X006710Y014520D03*
X007210Y014520D03*
X007710Y014520D03*
X008210Y014520D03*
X008210Y016940D03*
X007710Y016940D03*
X007210Y016940D03*
X006710Y016940D03*
D25*
X020450Y016880D03*
X020450Y015974D03*
X020450Y017786D03*
D26*
X017969Y016880D03*
D27*
X015367Y017902D03*
X015111Y017902D03*
X014855Y017902D03*
X014599Y017902D03*
X014343Y017902D03*
X014087Y017902D03*
X013832Y017902D03*
X013576Y017902D03*
X013320Y017902D03*
X013064Y017902D03*
X012808Y017902D03*
X012552Y017902D03*
X012552Y020146D03*
X012808Y020146D03*
X013064Y020146D03*
X013320Y020146D03*
X013576Y020146D03*
X013832Y020146D03*
X014087Y020146D03*
X014343Y020146D03*
X014599Y020146D03*
X014855Y020146D03*
X015111Y020146D03*
X015367Y020146D03*
D28*
X010710Y020148D03*
X010710Y018912D03*
D29*
X007048Y019530D03*
M02*
